<?xml version="1.0" standalone="no"?>
<!DOCTYPE svg PUBLIC "-//W3C//DTD SVG 20010904//EN"
 "http://www.w3.org/TR/2001/REC-SVG-20010904/DTD/svg10.dtd">
<svg version="1.0" xmlns="http://www.w3.org/2000/svg"
 width="562.000000pt" height="562.000000pt" viewBox="0 0 562.000000 562.000000"
 preserveAspectRatio="xMidYMid meet">
<metadata>
Created by potrace 1.14, written by Peter Selinger 2001-2017
</metadata>
<g transform="translate(0.000000,562.000000) scale(0.100000,-0.100000)"
fill="#000000" stroke="none">
<path d="M2218 5585 c-3 -3 -24 -7 -47 -9 -23 -2 -54 -12 -69 -22 -15 -10 -28
-17 -30 -16 -1 2 -13 -9 -26 -23 -13 -14 -27 -25 -31 -25 -4 0 -23 -16 -41
-35 -19 -18 -34 -32 -34 -30 0 2 -17 -13 -38 -33 -21 -20 -37 -38 -36 -40 1
-2 -8 -14 -20 -27 -59 -66 -66 -75 -61 -75 3 0 -5 -15 -18 -32 -28 -37 -60
-96 -63 -117 -2 -8 -6 -17 -11 -20 -7 -6 -10 -13 -18 -51 -2 -8 -4 -16 -5 -17
-2 -2 -4 -7 -5 -13 -1 -5 -3 -11 -5 -12 -2 -4 -7 -25 -15 -63 -3 -16 -9 -39
-12 -50 -4 -11 -8 -31 -9 -45 -5 -54 -15 -105 -32 -154 -9 -28 -15 -54 -14
-58 1 -5 -3 -8 -10 -8 -6 0 -9 -3 -5 -6 3 -3 2 -16 -3 -28 -33 -87 -24 -348
15 -447 7 -18 -8 -32 -40 -36 -53 -8 -114 -64 -122 -112 -1 -8 -5 -17 -10 -20
-26 -20 -22 -159 7 -216 41 -81 120 -146 192 -159 13 -3 23 -5 23 -6 0 -1 11
-3 24 -6 37 -7 49 -21 56 -67 4 -23 11 -46 15 -52 5 -5 8 -14 9 -20 0 -13 44
-109 53 -115 3 -3 8 -12 10 -20 2 -8 11 -21 21 -28 9 -7 17 -18 17 -24 0 -27
126 -129 209 -169 125 -60 126 -60 141 -62 8 -2 21 -6 28 -10 6 -5 17 -5 22
-2 6 3 10 2 10 -3 0 -5 6 -9 13 -9 6 0 53 -9 102 -21 50 -11 126 -28 170 -37
44 -9 98 -21 120 -26 22 -6 55 -13 72 -16 18 -3 30 -9 27 -14 -3 -5 1 -9 9 -9
8 0 18 -14 22 -32 13 -63 18 -93 19 -115 0 -13 3 -23 6 -23 3 0 7 -12 8 -27 3
-35 18 -49 64 -61 52 -14 104 1 122 36 9 18 13 60 12 130 -1 112 5 126 56 136
14 2 36 9 47 16 12 6 21 8 21 6 0 -3 12 -1 28 5 15 6 41 13 57 16 17 2 39 6
50 8 11 2 40 6 65 10 56 9 55 9 110 25 25 8 47 14 50 14 3 1 10 4 16 8 6 4 22
9 36 12 15 2 39 13 54 23 16 10 29 17 31 16 7 -4 43 11 43 18 0 5 3 8 8 7 9
-3 72 30 95 50 9 8 17 12 17 7 0 -4 9 3 20 16 10 13 19 21 20 16 0 -16 127
105 165 157 11 16 25 34 32 41 7 7 15 26 19 41 4 16 10 34 15 39 4 6 10 28 13
50 3 22 7 49 10 60 2 11 5 26 5 33 1 10 8 9 34 -2 22 -9 39 -10 50 -4 10 5 17
6 17 3 0 -3 18 4 40 15 44 22 120 97 120 117 0 7 5 13 10 13 6 0 10 7 10 15 0
8 5 15 11 15 5 0 8 4 5 8 -3 5 1 19 8 33 18 36 20 129 2 163 -11 22 -12 34 -4
52 6 13 15 24 20 24 4 0 7 3 6 8 -2 4 6 27 16 52 10 25 21 58 23 74 2 17 7 32
11 35 4 4 8 15 9 26 1 11 5 36 8 55 8 46 9 197 0 235 -3 17 -8 40 -10 51 -2
12 -8 31 -14 43 -7 11 -9 21 -5 21 3 0 1 7 -6 15 -7 8 -9 15 -6 15 4 0 -2 13
-13 29 -12 16 -21 33 -21 38 0 5 -9 15 -19 23 -11 7 -19 16 -17 19 2 3 -10 18
-25 33 -16 15 -29 24 -29 20 0 -4 -4 -2 -8 3 -13 18 -71 55 -87 55 -18 0 -21
36 -2 39 6 1 54 3 104 4 51 1 93 5 93 8 0 10 -48 48 -54 42 -3 -3 -13 0 -21 7
-9 8 -50 14 -102 16 -47 2 -88 5 -91 8 -2 3 -6 21 -9 41 -5 47 -32 115 -62
154 -23 30 -51 42 -51 21 0 -5 5 -10 11 -10 5 0 8 -3 5 -8 -2 -4 2 -34 10 -67
16 -69 16 -135 0 -135 -7 0 -24 29 -40 65 -15 36 -32 65 -37 65 -5 0 -9 7 -9
15 0 8 -4 15 -10 15 -5 0 -10 6 -10 13 0 7 -9 19 -20 27 -11 8 -20 18 -20 22
0 5 -13 22 -30 40 -16 17 -30 34 -30 38 0 4 -11 13 -25 20 -14 7 -25 19 -25
27 0 7 -4 13 -10 13 -5 0 -20 9 -32 19 -45 38 -67 56 -94 76 -15 11 -32 25
-38 30 -19 18 -66 46 -66 39 0 -4 -7 -1 -15 6 -11 9 -54 14 -123 16 -59 1
-109 3 -112 4 -3 1 -9 1 -15 0 -32 -6 -103 -6 -122 1 -12 5 -24 5 -27 1 -3 -6
-86 -8 -93 -2 -4 3 -42 3 -45 0 -8 -5 -98 -4 -98 2 0 4 -13 3 -30 -2 -16 -5
-32 -5 -35 -1 -2 5 -24 5 -47 1 -24 -5 -47 -6 -51 -3 -12 7 -77 10 -77 3 0 -7
-48 -6 -54 1 -6 6 -103 2 -120 -4 -7 -3 -19 -1 -26 3 -8 5 -22 4 -32 -1 -12
-6 -18 -6 -18 0 0 6 -11 6 -29 1 -15 -4 -33 -5 -39 -1 -13 8 -81 6 -89 -3 -3
-3 -13 -1 -23 4 -10 5 -19 7 -22 5z"/>
<path d="M3751 2879 c-18 -4 -43 -11 -55 -17 -11 -5 -37 -16 -56 -23 -19 -7
-77 -32 -128 -56 -51 -24 -97 -43 -102 -43 -6 0 -10 -4 -10 -10 0 -5 -8 -10
-17 -10 -10 0 -29 -9 -42 -19 -22 -16 -26 -17 -54 -3 -33 16 -89 32 -126 35
-17 1 -25 -4 -27 -18 -12 -83 -40 -165 -57 -165 -4 0 -34 -19 -67 -41 -37 -27
-71 -42 -92 -43 -18 -1 -39 -6 -47 -10 -10 -6 -12 -5 -7 2 4 7 1 13 -8 13 -9
1 -20 3 -26 4 -5 1 -17 3 -25 4 -30 2 -107 90 -110 126 0 6 -5 17 -10 25 -5 8
-11 24 -12 34 -5 28 -6 28 -49 9 -21 -9 -41 -17 -44 -17 -9 -2 -75 -50 -78
-58 -2 -5 -8 -6 -13 -3 -4 3 -14 -3 -21 -15 -7 -11 -17 -20 -21 -20 -5 0 -14
-6 -22 -12 -84 -79 -106 -101 -115 -118 -13 -25 -30 -25 -74 -1 -19 11 -37 17
-40 14 -3 -4 -6 0 -6 7 0 7 -3 10 -6 7 -4 -4 -19 2 -33 11 -14 10 -48 29 -76
43 -27 13 -52 26 -55 29 -3 3 -30 16 -60 30 -30 14 -56 28 -58 33 -2 4 -12 7
-23 7 -10 0 -19 5 -19 10 0 6 -5 10 -12 10 -6 0 -36 12 -67 27 -31 15 -58 28
-61 28 -3 1 -21 8 -41 17 -69 30 -147 28 -170 -5 -3 -5 -10 -9 -15 -8 -5 0
-25 -10 -44 -21 -19 -12 -41 -23 -49 -24 -8 -2 -17 -8 -21 -14 -8 -13 -7 -14
-59 5 -22 7 -42 11 -45 8 -3 -4 -6 -1 -6 5 0 7 -5 12 -11 12 -5 0 -8 -4 -5 -8
3 -5 8 -31 12 -58 3 -27 8 -58 11 -69 2 -11 6 -31 9 -45 3 -14 11 -56 19 -95
24 -119 24 -125 12 -127 -7 0 -16 -2 -22 -2 -5 -1 -16 -5 -22 -9 -7 -5 -13 -5
-13 0 -1 4 -7 -3 -14 -17 -16 -30 -14 -72 6 -120 16 -39 14 -60 -7 -60 -17 0
-35 -31 -35 -60 0 -24 39 -100 51 -100 4 0 9 -9 12 -20 3 -11 1 -20 -5 -20 -5
0 -7 -4 -4 -8 2 -4 1 -14 -4 -21 -5 -9 -1 -27 11 -47 10 -19 16 -34 13 -34 -3
0 9 -12 28 -27 18 -16 34 -31 36 -35 2 -5 12 -8 21 -8 10 0 21 -3 25 -7 3 -4
13 -8 20 -9 58 -8 69 -29 101 -194 2 -14 9 -43 15 -65 38 -137 47 -190 31
-180 -14 8 -151 -33 -151 -46 0 -5 -3 -9 -7 -8 -16 2 -53 -14 -53 -22 0 -5 -6
-9 -12 -9 -15 0 -118 -96 -118 -110 0 -6 -4 -10 -9 -10 -5 0 -12 -10 -16 -22
-4 -13 -10 -30 -13 -38 -9 -24 -11 -132 -2 -149 22 -47 45 -87 56 -98 7 -7 21
-23 31 -36 42 -53 260 -187 305 -187 8 0 19 -5 26 -12 7 -7 12 -9 12 -5 0 3
18 0 40 -8 22 -8 42 -14 45 -15 3 0 6 0 8 -1 19 -6 53 -10 104 -12 35 -1 63
-4 63 -8 0 -3 18 -4 39 -3 27 1 42 -3 45 -13 7 -18 -1 -33 -18 -33 -7 0 -26
-20 -42 -45 -15 -25 -32 -45 -37 -45 -4 0 -6 -4 -2 -9 3 -5 -1 -15 -8 -23 -29
-29 -31 -78 -2 -74 22 3 43 26 41 44 -2 9 4 27 12 39 8 13 11 23 7 23 -4 0 3
9 16 20 13 10 20 19 16 20 -12 0 19 30 31 30 6 0 21 -17 33 -37 13 -21 27 -41
32 -44 5 -3 8 -9 8 -13 -1 -3 0 -8 0 -11 1 -3 2 -9 3 -14 0 -5 5 -13 10 -18 5
-5 6 -3 2 5 -4 6 -2 12 3 12 6 0 11 -7 11 -15 0 -9 6 -12 15 -9 8 4 15 2 15
-3 0 -19 70 -31 171 -29 58 2 111 6 117 10 7 4 12 3 12 -2 0 -10 54 -7 72 4 6
4 9 3 5 -2 -5 -9 85 -9 110 1 7 2 15 0 18 -5 4 -7 13 -6 25 0 13 7 21 7 25 0
4 -6 13 -7 23 -1 9 4 23 6 30 4 6 -3 12 0 12 5 0 5 14 9 30 10 19 0 30 -4 30
-13 0 -7 11 -16 25 -19 14 -4 25 -11 25 -17 0 -6 3 -8 8 -6 4 3 7 -10 7 -29 0
-19 -4 -34 -8 -34 -4 0 -3 -8 2 -19 6 -10 8 -21 5 -24 -4 -4 506 -2 666 2 8 0
99 -1 203 -3 103 -2 190 0 193 5 2 4 12 5 21 2 12 -5 15 -2 10 10 -4 11 -2 14
8 10 8 -3 12 -10 8 -16 -3 -6 -1 -7 6 -3 6 4 9 12 6 17 -4 5 -1 9 4 9 6 0 11
4 11 10 0 5 -8 6 -17 3 -16 -6 -17 -5 -3 12 8 10 10 16 3 12 -6 -4 -14 -3 -17
2 -4 5 5 8 18 7 18 -2 23 1 18 12 -4 10 -1 13 7 8 10 -6 10 -4 0 12 -7 11 -19
18 -26 15 -7 -3 -13 1 -13 8 0 7 -3 9 -7 6 -3 -4 -12 -2 -20 4 -10 9 -13 8
-13 0 0 -7 -5 -9 -12 -5 -16 10 -48 13 -48 4 0 -4 -7 -7 -15 -7 -8 0 -15 3
-15 7 0 6 -26 9 -89 10 -19 0 -40 5 -47 11 -7 6 -19 7 -26 3 -10 -5 -10 -4 -1
6 6 7 9 19 6 26 -3 8 0 14 6 14 6 0 8 6 5 13 -7 20 67 69 100 66 5 0 12 3 15
8 14 21 96 51 114 42 11 -6 24 -6 37 1 11 6 25 8 30 5 5 -3 12 0 15 6 4 5 13
8 21 5 7 -3 16 -1 19 5 4 5 16 7 28 5 13 -2 41 2 62 10 22 8 51 16 65 19 38 7
129 53 185 94 96 70 159 146 185 226 15 46 21 135 9 135 -5 0 -6 6 -3 14 3 8
-4 34 -15 59 -12 25 -21 49 -21 52 0 4 -6 12 -12 19 -7 7 -24 27 -38 44 -14
18 -30 32 -37 32 -6 0 -13 4 -15 9 -7 19 -118 48 -180 47 -75 -1 -87 7 -78 51
5 22 4 31 -3 26 -6 -4 -7 -1 -1 8 5 8 9 130 11 272 1 237 3 260 20 272 10 7
21 11 25 8 5 -2 11 3 14 11 3 9 10 14 14 11 4 -3 11 2 14 11 3 8 9 13 14 10
12 -7 71 85 75 119 4 33 -6 57 -41 93 -17 17 -20 27 -13 36 6 7 9 15 6 18 -3
3 1 17 9 33 19 37 12 84 -16 104 -13 8 -25 14 -26 13 -9 -8 -30 34 -21 43 17
17 10 81 -12 109 -11 14 -25 24 -29 21 -11 -7 -45 43 -37 52 4 3 2 14 -3 24
-7 12 -7 20 0 24 7 4 7 12 1 23 -6 10 -6 23 0 34 5 9 5 19 1 22 -4 2 -7 31 -6
63 3 70 -3 96 -19 86 -7 -4 -17 -8 -23 -9 -6 -1 -21 -5 -32 -8 -14 -5 -30 3
-55 26 -78 72 -98 81 -138 61 -43 -21 -81 -21 -85 0 -2 9 -5 24 -7 32 -4 21
-8 22 -46 14z"/>
<path d="M2030 185 c0 -8 5 -15 10 -15 6 0 10 7 10 15 0 8 -4 15 -10 15 -5 0
-10 -7 -10 -15z"/>
</g>
</svg>
