<?xml version="1.0" standalone="no"?><svg xmlns="http://www.w3.org/2000/svg" viewBox="0 0 1440 320"><path fill="#5fcf80" fill-opacity="1" d="M0,32L21.8,53.3C43.6,75,87,117,131,122.7C174.5,128,218,96,262,96C305.5,96,349,128,393,133.3C436.4,139,480,117,524,128C567.3,139,611,181,655,213.3C698.2,245,742,267,785,234.7C829.1,203,873,117,916,117.3C960,117,1004,203,1047,213.3C1090.9,224,1135,160,1178,154.7C1221.8,149,1265,203,1309,218.7C1352.7,235,1396,213,1418,202.7L1440,192L1440,0L1418.2,0C1396.4,0,1353,0,1309,0C1265.5,0,1222,0,1178,0C1134.5,0,1091,0,1047,0C1003.6,0,960,0,916,0C872.7,0,829,0,785,0C741.8,0,698,0,655,0C610.9,0,567,0,524,0C480,0,436,0,393,0C349.1,0,305,0,262,0C218.2,0,175,0,131,0C87.3,0,44,0,22,0L0,0Z"></path></svg>